G75*
G70*
%OFA0B0*%
%FSLAX24Y24*%
%IPPOS*%
%LPD*%
%AMOC8*
5,1,8,0,0,1.08239X$1,22.5*
%
%ADD10C,0.0000*%
%ADD11C,0.0060*%
%ADD12C,0.0080*%
%ADD13C,0.0050*%
D10*
X002187Y002187D02*
X002187Y014687D01*
X012187Y014687D01*
X012187Y002187D01*
X002187Y002187D01*
D11*
X004062Y002697D02*
X004062Y002787D01*
X004172Y002807D01*
X004202Y002897D01*
X004142Y002987D01*
X004212Y003057D01*
X004302Y002987D01*
X004382Y003027D01*
X004412Y003137D01*
X004502Y003137D01*
X004522Y003027D01*
X004602Y002987D01*
X004692Y003057D01*
X004762Y002987D01*
X004702Y002897D01*
X004742Y002807D01*
X004842Y002787D01*
X004842Y002697D01*
X004742Y002677D01*
X004702Y002587D01*
X004762Y002497D01*
X004692Y002437D01*
X004612Y002497D01*
X004572Y002477D01*
X004512Y002637D01*
X004562Y002627D02*
X004622Y002727D01*
X004582Y002837D01*
X004472Y002897D01*
X004342Y002857D01*
X004302Y002727D01*
X004342Y002617D01*
X004312Y002517D01*
X004222Y002467D01*
X004172Y002497D01*
X004232Y002597D01*
X004182Y002707D01*
X004082Y002727D01*
X004082Y002757D01*
X004182Y002797D01*
X004222Y002907D01*
X004172Y002997D01*
X004212Y003027D01*
X004292Y002967D01*
X004402Y003027D01*
X004432Y003117D01*
X004482Y003117D01*
X004512Y003007D01*
X004602Y002967D01*
X004682Y003027D01*
X004732Y002987D01*
X004682Y002907D01*
X004732Y002787D01*
X004812Y002767D01*
X004822Y002717D01*
X004732Y002697D01*
X004682Y002587D01*
X004722Y002507D01*
X004682Y002477D01*
X004592Y002527D01*
X004562Y002627D01*
X004571Y002597D02*
X004687Y002597D01*
X004706Y002538D02*
X004589Y002538D01*
X004677Y002480D02*
X004686Y002480D01*
X004713Y002655D02*
X004579Y002655D01*
X004614Y002714D02*
X004808Y002714D01*
X004790Y002773D02*
X004606Y002773D01*
X004584Y002831D02*
X004714Y002831D01*
X004689Y002890D02*
X004486Y002890D01*
X004448Y002890D02*
X004216Y002890D01*
X004199Y002948D02*
X004708Y002948D01*
X004708Y003007D02*
X004655Y003007D01*
X004513Y003007D02*
X004365Y003007D01*
X004415Y003065D02*
X004496Y003065D01*
X004334Y002831D02*
X004194Y002831D01*
X004121Y002773D02*
X004316Y002773D01*
X004307Y002714D02*
X004148Y002714D01*
X004162Y002677D02*
X004062Y002697D01*
X004162Y002677D02*
X004202Y002587D01*
X004142Y002497D01*
X004212Y002437D01*
X004292Y002497D01*
X004332Y002477D01*
X004392Y002637D01*
X004328Y002655D02*
X004206Y002655D01*
X004232Y002597D02*
X004336Y002597D01*
X004318Y002538D02*
X004197Y002538D01*
X004201Y002480D02*
X004245Y002480D01*
X004392Y002637D02*
X004375Y002649D01*
X004360Y002664D01*
X004347Y002681D01*
X004338Y002700D01*
X004333Y002721D01*
X004331Y002742D01*
X004333Y002763D01*
X004338Y002783D01*
X004347Y002802D01*
X004359Y002820D01*
X004374Y002835D01*
X004391Y002847D01*
X004411Y002856D01*
X004431Y002861D01*
X004452Y002863D01*
X004473Y002861D01*
X004493Y002856D01*
X004513Y002847D01*
X004530Y002835D01*
X004545Y002820D01*
X004557Y002802D01*
X004566Y002783D01*
X004571Y002763D01*
X004573Y002742D01*
X004571Y002721D01*
X004566Y002700D01*
X004557Y002681D01*
X004544Y002664D01*
X004529Y002649D01*
X004512Y002637D01*
X004239Y003007D02*
X004185Y003007D01*
X009117Y005717D02*
X009117Y005911D01*
X009117Y005814D02*
X009407Y005814D01*
X009407Y006039D02*
X009214Y006039D01*
X009117Y006136D01*
X009214Y006233D01*
X009407Y006233D01*
X009359Y006362D02*
X009407Y006410D01*
X009407Y006507D01*
X009359Y006555D01*
X009117Y006555D01*
X009117Y006684D02*
X009117Y006877D01*
X009117Y006781D02*
X009407Y006781D01*
X009407Y007006D02*
X009407Y007103D01*
X009407Y007054D02*
X009117Y007054D01*
X009117Y007006D02*
X009117Y007103D01*
X009165Y007221D02*
X009359Y007221D01*
X009407Y007269D01*
X009407Y007366D01*
X009359Y007414D01*
X009165Y007414D02*
X009117Y007366D01*
X009117Y007269D01*
X009165Y007221D01*
X009117Y007865D02*
X009407Y007865D01*
X009407Y008059D01*
X009407Y008188D02*
X009407Y008381D01*
X009407Y008510D02*
X009407Y008703D01*
X009359Y008832D02*
X009407Y008880D01*
X009407Y008977D01*
X009359Y009026D01*
X009359Y008832D02*
X009165Y008832D01*
X009117Y008880D01*
X009117Y008977D01*
X009165Y009026D01*
X009117Y009154D02*
X009117Y009348D01*
X009117Y009251D02*
X009407Y009251D01*
X009407Y009477D02*
X009117Y009477D01*
X009117Y009622D01*
X009165Y009670D01*
X009262Y009670D01*
X009310Y009622D01*
X009310Y009477D01*
X009310Y009573D02*
X009407Y009670D01*
X009359Y009799D02*
X009407Y009847D01*
X009407Y009944D01*
X009359Y009992D01*
X009165Y009992D01*
X009117Y009944D01*
X009117Y009847D01*
X009165Y009799D01*
X009359Y009799D01*
X009407Y010121D02*
X009117Y010121D01*
X009407Y010315D01*
X009117Y010315D01*
X009117Y010443D02*
X009117Y010540D01*
X009117Y010492D02*
X009407Y010492D01*
X009407Y010540D02*
X009407Y010443D01*
X009359Y010658D02*
X009407Y010707D01*
X009407Y010803D01*
X009359Y010852D01*
X009359Y010980D02*
X009407Y011029D01*
X009407Y011126D01*
X009359Y011174D01*
X009310Y011174D01*
X009262Y011126D01*
X009262Y011029D01*
X009214Y010980D01*
X009165Y010980D01*
X009117Y011029D01*
X009117Y011126D01*
X009165Y011174D01*
X009165Y010852D02*
X009117Y010803D01*
X009117Y010707D01*
X009165Y010658D01*
X009359Y010658D01*
X009407Y011625D02*
X009117Y011625D01*
X009407Y011625D02*
X009407Y011818D01*
X009407Y011947D02*
X009407Y012141D01*
X009359Y012269D02*
X009407Y012318D01*
X009407Y012415D01*
X009359Y012463D01*
X009359Y012269D02*
X009165Y012269D01*
X009117Y012318D01*
X009117Y012415D01*
X009165Y012463D01*
X009117Y011947D02*
X009407Y011947D01*
X009117Y008703D02*
X009117Y008510D01*
X009407Y008510D01*
X009262Y008510D02*
X009262Y008607D01*
X009117Y008188D02*
X009407Y008188D01*
X009262Y007962D02*
X009262Y007865D01*
X009117Y007865D02*
X009117Y008059D01*
X009117Y006362D02*
X009359Y006362D01*
X009262Y006233D02*
X009262Y006039D01*
X005272Y013467D02*
X005272Y013694D01*
X005159Y013807D01*
X005045Y013694D01*
X005045Y013467D01*
X004904Y013524D02*
X004904Y013581D01*
X004847Y013637D01*
X004734Y013637D01*
X004677Y013694D01*
X004677Y013751D01*
X004734Y013807D01*
X004847Y013807D01*
X004904Y013751D01*
X005045Y013637D02*
X005272Y013637D01*
X004904Y013524D02*
X004847Y013467D01*
X004734Y013467D01*
X004677Y013524D01*
X004535Y013637D02*
X004309Y013637D01*
X004167Y013751D02*
X004167Y013807D01*
X004167Y013751D02*
X004054Y013637D01*
X004054Y013467D01*
X004054Y013637D02*
X003940Y013751D01*
X003940Y013807D01*
X003799Y013751D02*
X003799Y013694D01*
X003742Y013637D01*
X003572Y013637D01*
X003431Y013637D02*
X003204Y013637D01*
X003062Y013524D02*
X003006Y013467D01*
X002892Y013467D01*
X002835Y013524D01*
X002835Y013751D01*
X002892Y013807D01*
X003006Y013807D01*
X003062Y013751D01*
X002983Y014092D02*
X002983Y014286D01*
X002886Y014382D01*
X002789Y014286D01*
X002789Y014092D01*
X002789Y014237D02*
X002983Y014237D01*
X003112Y014140D02*
X003112Y014382D01*
X003305Y014382D02*
X003305Y014140D01*
X003257Y014092D01*
X003160Y014092D01*
X003112Y014140D01*
X003434Y014382D02*
X003627Y014382D01*
X003531Y014382D02*
X003531Y014092D01*
X003756Y014092D02*
X003853Y014092D01*
X003804Y014092D02*
X003804Y014382D01*
X003756Y014382D02*
X003853Y014382D01*
X003971Y014334D02*
X003971Y014140D01*
X004019Y014092D01*
X004116Y014092D01*
X004164Y014140D01*
X004293Y014140D02*
X004341Y014140D01*
X004341Y014092D01*
X004293Y014092D01*
X004293Y014140D01*
X004454Y014140D02*
X004454Y014334D01*
X004503Y014382D01*
X004599Y014382D01*
X004648Y014334D01*
X004776Y014334D02*
X004776Y014140D01*
X004825Y014092D01*
X004922Y014092D01*
X004970Y014140D01*
X004970Y014334D01*
X004922Y014382D01*
X004825Y014382D01*
X004776Y014334D01*
X004648Y014140D02*
X004599Y014092D01*
X004503Y014092D01*
X004454Y014140D01*
X004164Y014334D02*
X004116Y014382D01*
X004019Y014382D01*
X003971Y014334D01*
X003742Y013807D02*
X003572Y013807D01*
X003572Y013467D01*
X003742Y013467D01*
X003799Y013524D01*
X003799Y013581D01*
X003742Y013637D01*
X003799Y013751D02*
X003742Y013807D01*
X002694Y013751D02*
X002637Y013807D01*
X002524Y013807D01*
X002467Y013751D01*
X002467Y013524D01*
X002524Y013467D01*
X002637Y013467D01*
X002694Y013524D01*
X002564Y014092D02*
X002564Y014382D01*
X002467Y014382D02*
X002661Y014382D01*
X005099Y014382D02*
X005099Y014092D01*
X005292Y014092D02*
X005292Y014382D01*
X005195Y014286D01*
X005099Y014382D01*
D12*
X004648Y012897D02*
X004437Y012897D01*
X004437Y012477D01*
X004648Y012477D01*
X004718Y012547D01*
X004718Y012617D01*
X004648Y012687D01*
X004437Y012687D01*
X004648Y012687D02*
X004718Y012757D01*
X004718Y012827D01*
X004648Y012897D01*
X004257Y012477D02*
X003977Y012477D01*
X004117Y012477D02*
X004117Y012897D01*
X003977Y012757D01*
X003687Y012937D02*
X003687Y012437D01*
X003437Y012187D01*
X003687Y011937D01*
X003687Y011437D01*
X003437Y011187D01*
X003687Y010937D01*
X003687Y010437D01*
X003437Y010187D01*
X003687Y009937D01*
X003687Y009437D01*
X003437Y009187D01*
X003687Y008937D01*
X003687Y008437D01*
X003437Y008187D01*
X003687Y007937D01*
X003687Y007437D01*
X003437Y007187D01*
X003687Y006937D01*
X003687Y006437D01*
X003437Y006187D01*
X003687Y005937D01*
X003687Y005437D01*
X003437Y005187D01*
X003687Y004937D01*
X003687Y004437D01*
X003437Y004187D01*
X003687Y003937D01*
X003687Y003437D01*
X003437Y003187D01*
X002937Y003187D01*
X002687Y003437D01*
X002687Y003937D01*
X002937Y004187D01*
X002687Y004437D01*
X002687Y004937D01*
X002937Y005187D01*
X002687Y005437D01*
X002687Y005937D01*
X002937Y006187D01*
X002687Y006437D01*
X002687Y006937D01*
X002937Y007187D01*
X002687Y007437D01*
X002687Y007937D01*
X002937Y008187D01*
X002687Y008437D01*
X002687Y008937D01*
X002937Y009187D01*
X002687Y009437D01*
X002687Y009937D01*
X002937Y010187D01*
X002687Y010437D01*
X002687Y010937D01*
X002937Y011187D01*
X002687Y011437D01*
X002687Y011937D01*
X002937Y012187D01*
X002687Y012437D01*
X002687Y012937D01*
X002937Y013187D01*
X003437Y013187D01*
X003687Y012937D01*
X004047Y011897D02*
X003977Y011827D01*
X004047Y011897D02*
X004187Y011897D01*
X004257Y011827D01*
X004257Y011757D01*
X003977Y011477D01*
X004257Y011477D01*
X004437Y011477D02*
X004648Y011477D01*
X004718Y011547D01*
X004718Y011617D01*
X004648Y011687D01*
X004437Y011687D01*
X004437Y011477D02*
X004437Y011897D01*
X004648Y011897D01*
X004718Y011827D01*
X004718Y011757D01*
X004648Y011687D01*
X004648Y010897D02*
X004437Y010897D01*
X004437Y010477D01*
X004648Y010477D01*
X004718Y010547D01*
X004718Y010617D01*
X004648Y010687D01*
X004437Y010687D01*
X004257Y010617D02*
X004257Y010547D01*
X004187Y010477D01*
X004047Y010477D01*
X003977Y010547D01*
X004117Y010687D02*
X004187Y010687D01*
X004257Y010617D01*
X004187Y010687D02*
X004257Y010757D01*
X004257Y010827D01*
X004187Y010897D01*
X004047Y010897D01*
X003977Y010827D01*
X004648Y010897D02*
X004718Y010827D01*
X004718Y010757D01*
X004648Y010687D01*
X004648Y009897D02*
X004437Y009897D01*
X004437Y009477D01*
X004648Y009477D01*
X004718Y009547D01*
X004718Y009617D01*
X004648Y009687D01*
X004437Y009687D01*
X004257Y009687D02*
X003977Y009687D01*
X004187Y009897D01*
X004187Y009477D01*
X004648Y009687D02*
X004718Y009757D01*
X004718Y009827D01*
X004648Y009897D01*
X004648Y008897D02*
X004437Y008897D01*
X004437Y008477D01*
X004648Y008477D01*
X004718Y008547D01*
X004718Y008617D01*
X004648Y008687D01*
X004437Y008687D01*
X004257Y008687D02*
X004257Y008547D01*
X004187Y008477D01*
X004047Y008477D01*
X003977Y008547D01*
X003977Y008687D02*
X004117Y008757D01*
X004187Y008757D01*
X004257Y008687D01*
X004257Y008897D02*
X003977Y008897D01*
X003977Y008687D01*
X004648Y008687D02*
X004718Y008757D01*
X004718Y008827D01*
X004648Y008897D01*
X004648Y007897D02*
X004437Y007897D01*
X004437Y007477D01*
X004648Y007477D01*
X004718Y007547D01*
X004718Y007617D01*
X004648Y007687D01*
X004437Y007687D01*
X004257Y007617D02*
X004187Y007687D01*
X003977Y007687D01*
X003977Y007547D01*
X004047Y007477D01*
X004187Y007477D01*
X004257Y007547D01*
X004257Y007617D01*
X004117Y007827D02*
X003977Y007687D01*
X004117Y007827D02*
X004257Y007897D01*
X004648Y007897D02*
X004718Y007827D01*
X004718Y007757D01*
X004648Y007687D01*
X004648Y006897D02*
X004437Y006897D01*
X004437Y006477D01*
X004648Y006477D01*
X004718Y006547D01*
X004718Y006617D01*
X004648Y006687D01*
X004437Y006687D01*
X004257Y006827D02*
X003977Y006547D01*
X003977Y006477D01*
X003977Y006897D02*
X004257Y006897D01*
X004257Y006827D01*
X004648Y006897D02*
X004718Y006827D01*
X004718Y006757D01*
X004648Y006687D01*
X004648Y005897D02*
X004437Y005897D01*
X004437Y005477D01*
X004648Y005477D01*
X004718Y005547D01*
X004718Y005617D01*
X004648Y005687D01*
X004437Y005687D01*
X004257Y005617D02*
X004257Y005547D01*
X004187Y005477D01*
X004047Y005477D01*
X003977Y005547D01*
X003977Y005617D01*
X004047Y005687D01*
X004187Y005687D01*
X004257Y005617D01*
X004187Y005687D02*
X004257Y005757D01*
X004257Y005827D01*
X004187Y005897D01*
X004047Y005897D01*
X003977Y005827D01*
X003977Y005757D01*
X004047Y005687D01*
X004648Y005687D02*
X004718Y005757D01*
X004718Y005827D01*
X004648Y005897D01*
X004648Y004897D02*
X004507Y004897D01*
X004437Y004827D01*
X004437Y004547D01*
X004507Y004477D01*
X004648Y004477D01*
X004718Y004547D01*
X004718Y004827D01*
X004648Y004897D01*
X004898Y004897D02*
X005038Y004757D01*
X005178Y004897D01*
X005178Y004477D01*
X004898Y004477D02*
X004898Y004897D01*
X004257Y004827D02*
X004187Y004897D01*
X004047Y004897D01*
X003977Y004827D01*
X003977Y004547D01*
X004047Y004477D01*
X004187Y004477D01*
X004257Y004547D01*
X004187Y003897D02*
X004047Y003897D01*
X003977Y003827D01*
X003977Y003547D01*
X004047Y003477D01*
X004187Y003477D01*
X004257Y003547D01*
X004257Y003687D01*
X004117Y003687D01*
X004257Y003827D02*
X004187Y003897D01*
X004437Y003897D02*
X004718Y003477D01*
X004718Y003897D01*
X004898Y003897D02*
X004898Y003477D01*
X005108Y003477D01*
X005178Y003547D01*
X005178Y003827D01*
X005108Y003897D01*
X004898Y003897D01*
X004437Y003897D02*
X004437Y003477D01*
X009227Y003547D02*
X009297Y003477D01*
X009437Y003477D01*
X009507Y003547D01*
X009507Y003687D01*
X009367Y003687D01*
X009227Y003827D02*
X009227Y003547D01*
X009227Y003827D02*
X009297Y003897D01*
X009437Y003897D01*
X009507Y003827D01*
X009687Y003897D02*
X009968Y003477D01*
X009968Y003897D01*
X010148Y003897D02*
X010358Y003897D01*
X010428Y003827D01*
X010428Y003547D01*
X010358Y003477D01*
X010148Y003477D01*
X010148Y003897D01*
X009687Y003897D02*
X009687Y003477D01*
X009757Y004477D02*
X009898Y004477D01*
X009968Y004547D01*
X009968Y004827D01*
X009898Y004897D01*
X009757Y004897D01*
X009687Y004827D01*
X009687Y004547D01*
X009757Y004477D01*
X009507Y004547D02*
X009437Y004477D01*
X009297Y004477D01*
X009227Y004547D01*
X009227Y004827D01*
X009297Y004897D01*
X009437Y004897D01*
X009507Y004827D01*
X010148Y004897D02*
X010148Y004477D01*
X010428Y004477D02*
X010428Y004897D01*
X010288Y004757D01*
X010148Y004897D01*
X010257Y005477D02*
X010187Y005547D01*
X010187Y005827D01*
X010257Y005897D01*
X010398Y005897D01*
X010468Y005827D01*
X010687Y005937D02*
X010687Y005437D01*
X010937Y005187D01*
X010687Y004937D01*
X010687Y004437D01*
X010937Y004187D01*
X010687Y003937D01*
X010687Y003437D01*
X010937Y003187D01*
X011437Y003187D01*
X011687Y003437D01*
X011687Y003937D01*
X011437Y004187D01*
X011687Y004437D01*
X011687Y004937D01*
X011437Y005187D01*
X011687Y005437D01*
X011687Y005937D01*
X011437Y006187D01*
X011687Y006437D01*
X011687Y006937D01*
X011437Y007187D01*
X011687Y007437D01*
X011687Y007937D01*
X011437Y008187D01*
X011687Y008437D01*
X011687Y008937D01*
X011437Y009187D01*
X011687Y009437D01*
X011687Y009937D01*
X011437Y010187D01*
X011687Y010437D01*
X011687Y010937D01*
X011437Y011187D01*
X011687Y011437D01*
X011687Y011937D01*
X011437Y012187D01*
X011687Y012437D01*
X011687Y012937D01*
X011437Y013187D01*
X010937Y013187D01*
X010687Y012937D01*
X010687Y012437D01*
X010937Y012187D01*
X010687Y011937D01*
X010687Y011437D01*
X010937Y011187D01*
X010687Y010937D01*
X010687Y010437D01*
X010937Y010187D01*
X010687Y009937D01*
X010687Y009437D01*
X010937Y009187D01*
X010687Y008937D01*
X010687Y008437D01*
X010937Y008187D01*
X010687Y007937D01*
X010687Y007437D01*
X010937Y007187D01*
X010687Y006937D01*
X010687Y006437D01*
X010937Y006187D01*
X010687Y005937D01*
X010468Y005547D02*
X010398Y005477D01*
X010257Y005477D01*
X010007Y005547D02*
X009937Y005477D01*
X009797Y005477D01*
X009727Y005547D01*
X009727Y005617D01*
X009797Y005687D01*
X009937Y005687D01*
X010007Y005617D01*
X010007Y005547D01*
X009937Y005687D02*
X010007Y005757D01*
X010007Y005827D01*
X009937Y005897D01*
X009797Y005897D01*
X009727Y005827D01*
X009727Y005757D01*
X009797Y005687D01*
X009727Y006477D02*
X009727Y006547D01*
X010007Y006827D01*
X010007Y006897D01*
X009727Y006897D01*
X010187Y006827D02*
X010187Y006547D01*
X010257Y006477D01*
X010398Y006477D01*
X010468Y006547D01*
X010468Y006827D02*
X010398Y006897D01*
X010257Y006897D01*
X010187Y006827D01*
X010257Y007477D02*
X010187Y007547D01*
X010187Y007827D01*
X010257Y007897D01*
X010398Y007897D01*
X010468Y007827D01*
X010468Y007547D02*
X010398Y007477D01*
X010257Y007477D01*
X010007Y007547D02*
X010007Y007617D01*
X009937Y007687D01*
X009727Y007687D01*
X009727Y007547D01*
X009797Y007477D01*
X009937Y007477D01*
X010007Y007547D01*
X009867Y007827D02*
X009727Y007687D01*
X009867Y007827D02*
X010007Y007897D01*
X009937Y008477D02*
X009797Y008477D01*
X009727Y008547D01*
X009727Y008687D02*
X009867Y008757D01*
X009937Y008757D01*
X010007Y008687D01*
X010007Y008547D01*
X009937Y008477D01*
X010187Y008547D02*
X010257Y008477D01*
X010398Y008477D01*
X010468Y008547D01*
X010468Y008827D02*
X010398Y008897D01*
X010257Y008897D01*
X010187Y008827D01*
X010187Y008547D01*
X010007Y008897D02*
X009727Y008897D01*
X009727Y008687D01*
X009937Y009477D02*
X009937Y009897D01*
X009727Y009687D01*
X010007Y009687D01*
X010187Y009547D02*
X010257Y009477D01*
X010398Y009477D01*
X010468Y009547D01*
X010468Y009827D02*
X010398Y009897D01*
X010257Y009897D01*
X010187Y009827D01*
X010187Y009547D01*
X010257Y010477D02*
X010187Y010547D01*
X010187Y010827D01*
X010257Y010897D01*
X010398Y010897D01*
X010468Y010827D01*
X010468Y010547D02*
X010398Y010477D01*
X010257Y010477D01*
X010007Y010547D02*
X009937Y010477D01*
X009797Y010477D01*
X009727Y010547D01*
X009867Y010687D02*
X009937Y010687D01*
X010007Y010617D01*
X010007Y010547D01*
X009937Y010687D02*
X010007Y010757D01*
X010007Y010827D01*
X009937Y010897D01*
X009797Y010897D01*
X009727Y010827D01*
X009727Y011477D02*
X010007Y011757D01*
X010007Y011827D01*
X009937Y011897D01*
X009797Y011897D01*
X009727Y011827D01*
X009727Y011477D02*
X010007Y011477D01*
X010187Y011547D02*
X010257Y011477D01*
X010398Y011477D01*
X010468Y011547D01*
X010468Y011827D02*
X010398Y011897D01*
X010257Y011897D01*
X010187Y011827D01*
X010187Y011547D01*
X010257Y012477D02*
X010398Y012477D01*
X010468Y012547D01*
X010257Y012477D02*
X010187Y012547D01*
X010187Y012827D01*
X010257Y012897D01*
X010398Y012897D01*
X010468Y012827D01*
X010007Y012477D02*
X009727Y012477D01*
X009867Y012477D02*
X009867Y012897D01*
X009727Y012757D01*
D13*
X009962Y013587D02*
X010097Y013587D01*
X010142Y013632D01*
X010142Y013812D01*
X010097Y013857D01*
X009962Y013857D01*
X009962Y013587D01*
X010257Y013587D02*
X010257Y013857D01*
X010392Y013857D01*
X010437Y013812D01*
X010437Y013722D01*
X010392Y013677D01*
X010257Y013677D01*
X010347Y013677D02*
X010437Y013587D01*
X010551Y013587D02*
X010641Y013587D01*
X010596Y013587D02*
X010596Y013857D01*
X010551Y013857D02*
X010641Y013857D01*
X010748Y013857D02*
X010748Y013677D01*
X010838Y013587D01*
X010928Y013677D01*
X010928Y013857D01*
X011042Y013857D02*
X011042Y013587D01*
X011223Y013587D01*
X011337Y013587D02*
X011337Y013857D01*
X011472Y013857D01*
X011517Y013812D01*
X011517Y013722D01*
X011472Y013677D01*
X011337Y013677D01*
X011427Y013677D02*
X011517Y013587D01*
X011223Y013857D02*
X011042Y013857D01*
X011042Y013722D02*
X011132Y013722D01*
X011060Y014087D02*
X011060Y014357D01*
X011195Y014357D01*
X011240Y014312D01*
X011240Y014222D01*
X011195Y014177D01*
X011060Y014177D01*
X010651Y014222D02*
X010471Y014222D01*
X010471Y014087D02*
X010471Y014357D01*
X010356Y014312D02*
X010311Y014357D01*
X010221Y014357D01*
X010176Y014312D01*
X010176Y014132D01*
X010221Y014087D01*
X010311Y014087D01*
X010356Y014132D01*
X010651Y014087D02*
X010651Y014357D01*
X011355Y014357D02*
X011355Y014087D01*
X011535Y014087D02*
X011355Y014357D01*
X011535Y014357D02*
X011535Y014087D01*
X011650Y014087D02*
X011650Y014357D01*
X011785Y014357D01*
X011830Y014312D01*
X011830Y014222D01*
X011785Y014177D01*
X011650Y014177D01*
X009767Y014177D02*
X009767Y014132D01*
X009722Y014087D01*
X009632Y014087D01*
X009587Y014132D01*
X009587Y014177D01*
X009632Y014222D01*
X009722Y014222D01*
X009767Y014177D01*
X009722Y014222D02*
X009767Y014267D01*
X009767Y014312D01*
X009722Y014357D01*
X009632Y014357D01*
X009587Y014312D01*
X009587Y014267D01*
X009632Y014222D01*
X009587Y002857D02*
X009677Y002767D01*
X009767Y002857D01*
X009767Y002587D01*
X009882Y002587D02*
X009882Y002857D01*
X009972Y002767D01*
X010062Y002857D01*
X010062Y002587D01*
X010176Y002587D02*
X010311Y002587D01*
X010356Y002632D01*
X010356Y002677D01*
X010311Y002722D01*
X010176Y002722D01*
X010176Y002587D02*
X010176Y002857D01*
X010311Y002857D01*
X010356Y002812D01*
X010356Y002767D01*
X010311Y002722D01*
X010471Y002857D02*
X010651Y002857D01*
X010561Y002857D02*
X010561Y002587D01*
X010766Y002722D02*
X010946Y002722D01*
X011060Y002722D02*
X011240Y002722D01*
X011195Y002587D02*
X011195Y002857D01*
X011060Y002722D01*
X010901Y002587D02*
X010901Y002857D01*
X010766Y002722D01*
X011355Y002632D02*
X011400Y002587D01*
X011490Y002587D01*
X011535Y002632D01*
X011535Y002812D01*
X011355Y002632D01*
X011355Y002812D01*
X011400Y002857D01*
X011490Y002857D01*
X011535Y002812D01*
X011650Y002812D02*
X011695Y002857D01*
X011785Y002857D01*
X011830Y002812D01*
X011830Y002767D01*
X011785Y002722D01*
X011830Y002677D01*
X011830Y002632D01*
X011785Y002587D01*
X011695Y002587D01*
X011650Y002632D01*
X011740Y002722D02*
X011785Y002722D01*
X009587Y002587D02*
X009587Y002857D01*
M02*
