G75*
G70*
%OFA0B0*%
%FSLAX24Y24*%
%IPPOS*%
%LPD*%
%AMOC8*
5,1,8,0,0,1.08239X$1,22.5*
%
%ADD10R,0.0591X0.0434*%
%ADD11C,0.0780*%
%ADD12R,0.0552X0.0631*%
D10*
X007754Y002813D03*
X007754Y003561D03*
X007754Y004313D03*
X007754Y005061D03*
X007754Y005813D03*
X007754Y006561D03*
X007754Y007313D03*
X007754Y008061D03*
X007754Y008813D03*
X007754Y009561D03*
X007754Y010313D03*
X007754Y011061D03*
X007754Y011813D03*
X007754Y012561D03*
X007754Y013313D03*
X007754Y014061D03*
X008620Y013687D03*
X008620Y012187D03*
X008620Y010687D03*
X008620Y009187D03*
X008620Y007687D03*
X008620Y006187D03*
X008620Y004687D03*
X008620Y003187D03*
D11*
X003137Y003687D03*
X003237Y004687D03*
X003137Y005687D03*
X003237Y006687D03*
X003137Y007687D03*
X003237Y008687D03*
X003137Y009687D03*
X003237Y010687D03*
X003137Y011687D03*
X003237Y012687D03*
X011137Y011687D03*
X011237Y010687D03*
X011137Y009687D03*
X011237Y008687D03*
X011137Y007687D03*
X011237Y006687D03*
X011137Y005687D03*
X011237Y004687D03*
X011137Y003687D03*
X011237Y012687D03*
D12*
X006561Y012187D03*
X005813Y012187D03*
X005813Y013687D03*
X006561Y013687D03*
X006561Y010687D03*
X005813Y010687D03*
X005813Y009187D03*
X006561Y009187D03*
X006561Y007687D03*
X005813Y007687D03*
X005813Y006187D03*
X006561Y006187D03*
X006561Y004687D03*
X005813Y004687D03*
X005813Y003187D03*
X006561Y003187D03*
M02*
