G75*
G70*
%OFA0B0*%
%FSLAX24Y24*%
%IPPOS*%
%LPD*%
%AMOC8*
5,1,8,0,0,1.08239X$1,22.5*
%
%ADD10R,0.0551X0.0394*%
%ADD11C,0.0740*%
%ADD12R,0.0512X0.0591*%
%ADD13C,0.0160*%
%ADD14C,0.0320*%
D10*
X007754Y002813D03*
X007754Y003561D03*
X007754Y004313D03*
X007754Y005061D03*
X007754Y005813D03*
X007754Y006561D03*
X007754Y007313D03*
X007754Y008061D03*
X007754Y008813D03*
X007754Y009561D03*
X007754Y010313D03*
X007754Y011061D03*
X007754Y011813D03*
X007754Y012561D03*
X007754Y013313D03*
X007754Y014061D03*
X008620Y013687D03*
X008620Y012187D03*
X008620Y010687D03*
X008620Y009187D03*
X008620Y007687D03*
X008620Y006187D03*
X008620Y004687D03*
X008620Y003187D03*
D11*
X011137Y003687D03*
X011237Y004687D03*
X011137Y005687D03*
X011237Y006687D03*
X011137Y007687D03*
X011237Y008687D03*
X011137Y009687D03*
X011237Y010687D03*
X011137Y011687D03*
X011237Y012687D03*
X003237Y012687D03*
X003137Y011687D03*
X003237Y010687D03*
X003137Y009687D03*
X003237Y008687D03*
X003137Y007687D03*
X003237Y006687D03*
X003137Y005687D03*
X003237Y004687D03*
X003137Y003687D03*
D12*
X005813Y003187D03*
X006561Y003187D03*
X006561Y004687D03*
X005813Y004687D03*
X005813Y006187D03*
X006561Y006187D03*
X006561Y007687D03*
X005813Y007687D03*
X005813Y009187D03*
X006561Y009187D03*
X006561Y010687D03*
X005813Y010687D03*
X005813Y012187D03*
X006561Y012187D03*
X006561Y013687D03*
X005813Y013687D03*
D13*
X002367Y014507D02*
X002367Y002367D01*
X012007Y002367D01*
X012007Y014507D01*
X002367Y014507D01*
X002367Y014395D02*
X007417Y014395D01*
X007420Y014398D02*
X007384Y014361D01*
X006995Y014361D01*
X006875Y014361D01*
X006765Y014315D01*
X006572Y014122D01*
X006247Y014122D01*
X006187Y014062D01*
X006127Y014122D01*
X005499Y014122D01*
X005417Y014040D01*
X005417Y013987D01*
X005247Y013987D01*
X005127Y013987D01*
X005017Y013941D01*
X004063Y012987D01*
X003658Y012987D01*
X003526Y013119D01*
X003339Y013197D01*
X003136Y013197D01*
X002948Y013119D01*
X002805Y012976D01*
X002727Y012789D01*
X002727Y012586D01*
X002805Y012398D01*
X002948Y012255D01*
X003087Y012197D01*
X003036Y012197D01*
X002848Y012119D01*
X002705Y011976D01*
X002627Y011789D01*
X002627Y011586D01*
X002705Y011398D01*
X002848Y011255D01*
X003036Y011177D01*
X003087Y011177D01*
X002948Y011119D01*
X002805Y010976D01*
X002727Y010789D01*
X002727Y010586D01*
X002805Y010398D01*
X002948Y010255D01*
X003087Y010197D01*
X003036Y010197D01*
X002848Y010119D01*
X002705Y009976D01*
X002627Y009789D01*
X002627Y009586D01*
X002705Y009398D01*
X002848Y009255D01*
X003036Y009177D01*
X003087Y009177D01*
X002948Y009119D01*
X002805Y008976D01*
X002727Y008789D01*
X002727Y008586D01*
X002805Y008398D01*
X002948Y008255D01*
X003087Y008197D01*
X003036Y008197D01*
X002848Y008119D01*
X002705Y007976D01*
X002627Y007789D01*
X002627Y007586D01*
X002705Y007398D01*
X002848Y007255D01*
X003036Y007177D01*
X003087Y007177D01*
X002948Y007119D01*
X002805Y006976D01*
X002727Y006789D01*
X002727Y006586D01*
X002805Y006398D01*
X002948Y006255D01*
X003087Y006197D01*
X003036Y006197D01*
X002848Y006119D01*
X002705Y005976D01*
X002627Y005789D01*
X002627Y005586D01*
X002705Y005398D01*
X002848Y005255D01*
X003009Y005188D01*
X002949Y005157D01*
X002879Y005107D01*
X002818Y005045D01*
X002767Y004975D01*
X002727Y004898D01*
X002701Y004816D01*
X002687Y004730D01*
X002687Y004707D01*
X003217Y004707D01*
X003217Y004667D01*
X002687Y004667D01*
X002687Y004644D01*
X002701Y004558D01*
X002727Y004476D01*
X002767Y004399D01*
X002818Y004329D01*
X002879Y004268D01*
X002949Y004217D01*
X003009Y004186D01*
X002848Y004119D01*
X002705Y003976D01*
X002627Y003789D01*
X002627Y003586D01*
X002705Y003398D01*
X002848Y003255D01*
X003036Y003177D01*
X003239Y003177D01*
X003426Y003255D01*
X003569Y003398D01*
X003647Y003586D01*
X003647Y003789D01*
X003569Y003976D01*
X003426Y004119D01*
X003355Y004149D01*
X003366Y004151D01*
X003448Y004177D01*
X003525Y004217D01*
X003595Y004268D01*
X003657Y004329D01*
X003707Y004399D01*
X003747Y004476D01*
X003774Y004558D01*
X003787Y004644D01*
X003787Y004667D01*
X003257Y004667D01*
X003257Y004707D01*
X003787Y004707D01*
X003787Y004730D01*
X003774Y004816D01*
X003747Y004898D01*
X003707Y004975D01*
X003657Y005045D01*
X003595Y005107D01*
X003525Y005157D01*
X003448Y005197D01*
X003366Y005224D01*
X003355Y005225D01*
X003426Y005255D01*
X003558Y005387D01*
X003563Y005387D01*
X003887Y005063D01*
X003887Y004627D01*
X003933Y004517D01*
X004017Y004433D01*
X005417Y003033D01*
X005417Y002834D01*
X005499Y002752D01*
X006127Y002752D01*
X006187Y002812D01*
X006247Y002752D01*
X006875Y002752D01*
X006957Y002834D01*
X006957Y003159D01*
X007059Y003261D01*
X007384Y003261D01*
X007420Y003224D01*
X008088Y003224D01*
X008170Y003306D01*
X008170Y003816D01*
X008088Y003898D01*
X007420Y003898D01*
X007384Y003861D01*
X006995Y003861D01*
X006875Y003861D01*
X006765Y003815D01*
X006572Y003622D01*
X006247Y003622D01*
X006187Y003562D01*
X006127Y003622D01*
X005676Y003622D01*
X004487Y004811D01*
X004487Y005127D01*
X004487Y005247D01*
X004441Y005357D01*
X003941Y005857D01*
X003857Y005941D01*
X003747Y005987D01*
X003558Y005987D01*
X003426Y006119D01*
X003287Y006177D01*
X003339Y006177D01*
X003526Y006255D01*
X003611Y006339D01*
X005417Y004533D01*
X005417Y004334D01*
X005499Y004252D01*
X006127Y004252D01*
X006187Y004312D01*
X006247Y004252D01*
X006875Y004252D01*
X006957Y004334D01*
X006957Y004659D01*
X007059Y004761D01*
X007384Y004761D01*
X007420Y004724D01*
X008088Y004724D01*
X008170Y004806D01*
X008170Y005316D01*
X008088Y005398D01*
X007420Y005398D01*
X007384Y005361D01*
X006995Y005361D01*
X006875Y005361D01*
X006765Y005315D01*
X006572Y005122D01*
X006247Y005122D01*
X006187Y005062D01*
X006127Y005122D01*
X005676Y005122D01*
X003941Y006857D01*
X003857Y006941D01*
X003747Y006987D01*
X003658Y006987D01*
X003526Y007119D01*
X003339Y007197D01*
X003287Y007197D01*
X003426Y007255D01*
X003558Y007387D01*
X004063Y007387D01*
X005417Y006033D01*
X005417Y005834D01*
X005499Y005752D01*
X006127Y005752D01*
X006187Y005812D01*
X006247Y005752D01*
X006875Y005752D01*
X006957Y005834D01*
X006957Y006159D01*
X007059Y006261D01*
X007384Y006261D01*
X007420Y006224D01*
X008088Y006224D01*
X008170Y006306D01*
X008170Y006816D01*
X008088Y006898D01*
X007420Y006898D01*
X007384Y006861D01*
X006995Y006861D01*
X006875Y006861D01*
X006765Y006815D01*
X006572Y006622D01*
X006247Y006622D01*
X006187Y006562D01*
X006127Y006622D01*
X005676Y006622D01*
X004441Y007857D01*
X004357Y007941D01*
X004247Y007987D01*
X003558Y007987D01*
X003426Y008119D01*
X003287Y008177D01*
X003339Y008177D01*
X003526Y008255D01*
X003658Y008387D01*
X004063Y008387D01*
X005017Y007433D01*
X005127Y007387D01*
X005247Y007387D01*
X005417Y007387D01*
X005417Y007334D01*
X005499Y007252D01*
X006127Y007252D01*
X006187Y007312D01*
X006247Y007252D01*
X006875Y007252D01*
X006957Y007334D01*
X006957Y007659D01*
X007059Y007761D01*
X007384Y007761D01*
X007420Y007724D01*
X008088Y007724D01*
X008170Y007806D01*
X008170Y008316D01*
X008088Y008398D01*
X007420Y008398D01*
X007384Y008361D01*
X006995Y008361D01*
X006875Y008361D01*
X006765Y008315D01*
X006572Y008122D01*
X006247Y008122D01*
X006187Y008062D01*
X006127Y008122D01*
X005499Y008122D01*
X005417Y008040D01*
X005417Y007987D01*
X005311Y007987D01*
X004441Y008857D01*
X004357Y008941D01*
X004247Y008987D01*
X003658Y008987D01*
X003526Y009119D01*
X003339Y009197D01*
X003287Y009197D01*
X003426Y009255D01*
X003558Y009387D01*
X004063Y009387D01*
X004517Y008933D01*
X004627Y008887D01*
X004747Y008887D01*
X005417Y008887D01*
X005417Y008834D01*
X005499Y008752D01*
X006127Y008752D01*
X006187Y008812D01*
X006247Y008752D01*
X006875Y008752D01*
X006957Y008834D01*
X006957Y009159D01*
X007059Y009261D01*
X007384Y009261D01*
X007420Y009224D01*
X008088Y009224D01*
X008170Y009306D01*
X008170Y009816D01*
X008088Y009898D01*
X007420Y009898D01*
X007384Y009861D01*
X006995Y009861D01*
X006875Y009861D01*
X006765Y009815D01*
X006572Y009622D01*
X006247Y009622D01*
X006187Y009562D01*
X006127Y009622D01*
X005499Y009622D01*
X005417Y009540D01*
X005417Y009487D01*
X004811Y009487D01*
X004441Y009857D01*
X004357Y009941D01*
X004247Y009987D01*
X003558Y009987D01*
X003426Y010119D01*
X003287Y010177D01*
X003339Y010177D01*
X003526Y010255D01*
X003658Y010387D01*
X005417Y010387D01*
X005417Y010334D01*
X005499Y010252D01*
X006127Y010252D01*
X006187Y010312D01*
X006247Y010252D01*
X006875Y010252D01*
X006957Y010334D01*
X006957Y010659D01*
X007059Y010761D01*
X007384Y010761D01*
X007420Y010724D01*
X008088Y010724D01*
X008170Y010806D01*
X008170Y011316D01*
X008088Y011398D01*
X007420Y011398D01*
X007384Y011361D01*
X006995Y011361D01*
X006875Y011361D01*
X006765Y011315D01*
X006572Y011122D01*
X006247Y011122D01*
X006187Y011062D01*
X006127Y011122D01*
X005499Y011122D01*
X005417Y011040D01*
X005417Y010987D01*
X003658Y010987D01*
X003526Y011119D01*
X003339Y011197D01*
X003287Y011197D01*
X003426Y011255D01*
X003558Y011387D01*
X004247Y011387D01*
X004357Y011433D01*
X004441Y011517D01*
X004811Y011887D01*
X005417Y011887D01*
X005417Y011834D01*
X005499Y011752D01*
X006127Y011752D01*
X006187Y011812D01*
X006247Y011752D01*
X006875Y011752D01*
X006957Y011834D01*
X006957Y012159D01*
X007059Y012261D01*
X007384Y012261D01*
X007420Y012224D01*
X008088Y012224D01*
X008170Y012306D01*
X008170Y012816D01*
X008088Y012898D01*
X007420Y012898D01*
X007384Y012861D01*
X006995Y012861D01*
X006875Y012861D01*
X006765Y012815D01*
X006572Y012622D01*
X006247Y012622D01*
X006187Y012562D01*
X006127Y012622D01*
X005499Y012622D01*
X005417Y012540D01*
X005417Y012487D01*
X004747Y012487D01*
X004627Y012487D01*
X004517Y012441D01*
X004063Y011987D01*
X003558Y011987D01*
X003426Y012119D01*
X003287Y012177D01*
X003339Y012177D01*
X003526Y012255D01*
X003658Y012387D01*
X004247Y012387D01*
X004357Y012433D01*
X004441Y012517D01*
X005311Y013387D01*
X005417Y013387D01*
X005417Y013334D01*
X005499Y013252D01*
X006127Y013252D01*
X006187Y013312D01*
X006247Y013252D01*
X006875Y013252D01*
X006957Y013334D01*
X006957Y013659D01*
X007059Y013761D01*
X007384Y013761D01*
X007420Y013724D01*
X008088Y013724D01*
X008170Y013806D01*
X008170Y014316D01*
X008088Y014398D01*
X007420Y014398D01*
X007384Y013761D02*
X007059Y013761D01*
X006957Y013602D02*
X007324Y013602D01*
X007334Y013620D02*
X007311Y013579D01*
X007298Y013534D01*
X007298Y013331D01*
X007735Y013331D01*
X007735Y013295D01*
X007298Y013295D01*
X007298Y013092D01*
X007311Y013047D01*
X007334Y013006D01*
X007368Y012972D01*
X007409Y012949D01*
X007455Y012936D01*
X007736Y012936D01*
X007736Y013294D01*
X007772Y013294D01*
X007772Y012936D01*
X008053Y012936D01*
X008099Y012949D01*
X008140Y012972D01*
X008174Y013006D01*
X008197Y013047D01*
X008210Y013092D01*
X008210Y013295D01*
X007773Y013295D01*
X007773Y013331D01*
X008210Y013331D01*
X008210Y013427D01*
X008287Y013350D01*
X008954Y013350D01*
X008991Y013387D01*
X009063Y013387D01*
X009933Y012517D01*
X010017Y012433D01*
X010127Y012387D01*
X010816Y012387D01*
X010948Y012255D01*
X011088Y012197D01*
X011036Y012197D01*
X010848Y012119D01*
X010716Y011987D01*
X010311Y011987D01*
X009857Y012441D01*
X009747Y012487D01*
X009627Y012487D01*
X008991Y012487D01*
X008954Y012524D01*
X008287Y012524D01*
X008205Y012442D01*
X008205Y012052D01*
X008197Y012079D01*
X008174Y012120D01*
X008140Y012154D01*
X008099Y012178D01*
X008053Y012190D01*
X007772Y012190D01*
X007772Y011832D01*
X007736Y011832D01*
X007736Y012190D01*
X007455Y012190D01*
X007409Y012178D01*
X007368Y012154D01*
X007334Y012120D01*
X007311Y012079D01*
X007298Y012034D01*
X007298Y011831D01*
X007735Y011831D01*
X007735Y011795D01*
X007298Y011795D01*
X007298Y011592D01*
X007311Y011547D01*
X007334Y011506D01*
X007368Y011472D01*
X007409Y011449D01*
X007455Y011436D01*
X007736Y011436D01*
X007736Y011794D01*
X007772Y011794D01*
X007772Y011436D01*
X008053Y011436D01*
X008099Y011449D01*
X008140Y011472D01*
X008174Y011506D01*
X008197Y011547D01*
X008210Y011592D01*
X008210Y011795D01*
X007773Y011795D01*
X007773Y011831D01*
X008210Y011831D01*
X008210Y011927D01*
X008287Y011850D01*
X008954Y011850D01*
X008991Y011887D01*
X009563Y011887D01*
X010017Y011433D01*
X010127Y011387D01*
X010247Y011387D01*
X010716Y011387D01*
X010848Y011255D01*
X011036Y011177D01*
X011088Y011177D01*
X010948Y011119D01*
X010816Y010987D01*
X008991Y010987D01*
X008954Y011024D01*
X008287Y011024D01*
X008205Y010942D01*
X008205Y010552D01*
X008197Y010579D01*
X008174Y010620D01*
X008140Y010654D01*
X008099Y010678D01*
X008053Y010690D01*
X007772Y010690D01*
X007772Y010332D01*
X007736Y010332D01*
X007736Y010690D01*
X007455Y010690D01*
X007409Y010678D01*
X007368Y010654D01*
X007334Y010620D01*
X007311Y010579D01*
X007298Y010534D01*
X007298Y010331D01*
X007735Y010331D01*
X007735Y010295D01*
X007298Y010295D01*
X007298Y010092D01*
X007311Y010047D01*
X007334Y010006D01*
X007368Y009972D01*
X007409Y009949D01*
X007455Y009936D01*
X007736Y009936D01*
X007736Y010294D01*
X007772Y010294D01*
X007772Y009936D01*
X008053Y009936D01*
X008099Y009949D01*
X008140Y009972D01*
X008174Y010006D01*
X008197Y010047D01*
X008210Y010092D01*
X008210Y010295D01*
X007773Y010295D01*
X007773Y010331D01*
X008210Y010331D01*
X008210Y010427D01*
X008287Y010350D01*
X008954Y010350D01*
X008991Y010387D01*
X010816Y010387D01*
X010948Y010255D01*
X011088Y010197D01*
X011036Y010197D01*
X010848Y010119D01*
X010716Y009987D01*
X010127Y009987D01*
X010017Y009941D01*
X009933Y009857D01*
X009563Y009487D01*
X008991Y009487D01*
X008954Y009524D01*
X008287Y009524D01*
X008205Y009442D01*
X008205Y009052D01*
X008197Y009079D01*
X008174Y009120D01*
X008140Y009154D01*
X008099Y009178D01*
X008053Y009190D01*
X007772Y009190D01*
X007772Y008832D01*
X007736Y008832D01*
X007736Y009190D01*
X007455Y009190D01*
X007409Y009178D01*
X007368Y009154D01*
X007334Y009120D01*
X007311Y009079D01*
X007298Y009034D01*
X007298Y008831D01*
X007735Y008831D01*
X007735Y008795D01*
X007298Y008795D01*
X007298Y008592D01*
X007311Y008547D01*
X007334Y008506D01*
X007368Y008472D01*
X007409Y008449D01*
X007455Y008436D01*
X007736Y008436D01*
X007736Y008794D01*
X007772Y008794D01*
X007772Y008436D01*
X008053Y008436D01*
X008099Y008449D01*
X008140Y008472D01*
X008174Y008506D01*
X008197Y008547D01*
X008210Y008592D01*
X008210Y008795D01*
X007773Y008795D01*
X007773Y008831D01*
X008210Y008831D01*
X008210Y008927D01*
X008287Y008850D01*
X008954Y008850D01*
X008991Y008887D01*
X009627Y008887D01*
X009747Y008887D01*
X009857Y008933D01*
X010311Y009387D01*
X010716Y009387D01*
X010848Y009255D01*
X011036Y009177D01*
X011088Y009177D01*
X010948Y009119D01*
X010816Y008987D01*
X010127Y008987D01*
X010017Y008941D01*
X009933Y008857D01*
X009063Y007987D01*
X008991Y007987D01*
X008954Y008024D01*
X008287Y008024D01*
X008205Y007942D01*
X008205Y007552D01*
X008197Y007579D01*
X008174Y007620D01*
X008140Y007654D01*
X008099Y007678D01*
X008053Y007690D01*
X007772Y007690D01*
X007772Y007332D01*
X007736Y007332D01*
X007736Y007690D01*
X007455Y007690D01*
X007409Y007678D01*
X007368Y007654D01*
X007334Y007620D01*
X007311Y007579D01*
X007298Y007534D01*
X007298Y007331D01*
X007735Y007331D01*
X007735Y007295D01*
X007298Y007295D01*
X007298Y007092D01*
X007311Y007047D01*
X007334Y007006D01*
X007368Y006972D01*
X007409Y006949D01*
X007455Y006936D01*
X007736Y006936D01*
X007736Y007294D01*
X007772Y007294D01*
X007772Y006936D01*
X008053Y006936D01*
X008099Y006949D01*
X008140Y006972D01*
X008174Y007006D01*
X008197Y007047D01*
X008210Y007092D01*
X008210Y007295D01*
X007773Y007295D01*
X007773Y007331D01*
X008210Y007331D01*
X008210Y007427D01*
X008287Y007350D01*
X008954Y007350D01*
X008991Y007387D01*
X009127Y007387D01*
X009247Y007387D01*
X009357Y007433D01*
X010311Y008387D01*
X010816Y008387D01*
X010948Y008255D01*
X011088Y008197D01*
X011036Y008197D01*
X010848Y008119D01*
X010716Y007987D01*
X010127Y007987D01*
X010017Y007941D01*
X009933Y007857D01*
X008982Y006906D01*
X008549Y006524D01*
X008287Y006524D01*
X008205Y006442D01*
X008205Y006052D01*
X008197Y006079D01*
X008174Y006120D01*
X008140Y006154D01*
X008099Y006178D01*
X008053Y006190D01*
X007772Y006190D01*
X007772Y005832D01*
X007736Y005832D01*
X007736Y006190D01*
X007455Y006190D01*
X007409Y006178D01*
X007368Y006154D01*
X007334Y006120D01*
X007311Y006079D01*
X007298Y006034D01*
X007298Y005831D01*
X007735Y005831D01*
X007735Y005795D01*
X007298Y005795D01*
X007298Y005592D01*
X007311Y005547D01*
X007334Y005506D01*
X007368Y005472D01*
X007409Y005449D01*
X007455Y005436D01*
X007736Y005436D01*
X007736Y005794D01*
X007772Y005794D01*
X007772Y005436D01*
X008053Y005436D01*
X008099Y005449D01*
X008140Y005472D01*
X008174Y005506D01*
X008197Y005547D01*
X008210Y005592D01*
X008210Y005795D01*
X007773Y005795D01*
X007773Y005831D01*
X008210Y005831D01*
X008210Y005927D01*
X008287Y005850D01*
X008954Y005850D01*
X009036Y005932D01*
X009036Y006154D01*
X009348Y006429D01*
X009357Y006433D01*
X009393Y006468D01*
X009430Y006502D01*
X009434Y006510D01*
X010311Y007387D01*
X010716Y007387D01*
X010848Y007255D01*
X011036Y007177D01*
X011088Y007177D01*
X010948Y007119D01*
X010816Y006987D01*
X010627Y006987D01*
X010517Y006941D01*
X010433Y006857D01*
X008933Y005357D01*
X008887Y005247D01*
X008887Y005127D01*
X008887Y005024D01*
X008287Y005024D01*
X008205Y004942D01*
X008205Y004552D01*
X008197Y004579D01*
X008174Y004620D01*
X008140Y004654D01*
X008099Y004678D01*
X008053Y004690D01*
X007772Y004690D01*
X007772Y004332D01*
X007736Y004332D01*
X007736Y004690D01*
X007455Y004690D01*
X007409Y004678D01*
X007368Y004654D01*
X007334Y004620D01*
X007311Y004579D01*
X007298Y004534D01*
X007298Y004331D01*
X007735Y004331D01*
X007735Y004295D01*
X007298Y004295D01*
X007298Y004092D01*
X007311Y004047D01*
X007334Y004006D01*
X007368Y003972D01*
X007409Y003949D01*
X007455Y003936D01*
X007736Y003936D01*
X007736Y004294D01*
X007772Y004294D01*
X007772Y003936D01*
X008053Y003936D01*
X008099Y003949D01*
X008140Y003972D01*
X008174Y004006D01*
X008197Y004047D01*
X008210Y004092D01*
X008210Y004295D01*
X007773Y004295D01*
X007773Y004331D01*
X008210Y004331D01*
X008210Y004427D01*
X008287Y004350D01*
X008954Y004350D01*
X008991Y004387D01*
X009127Y004387D01*
X009247Y004387D01*
X009357Y004433D01*
X009441Y004517D01*
X009487Y004627D01*
X009487Y005063D01*
X010811Y006387D01*
X010816Y006387D01*
X010948Y006255D01*
X011088Y006197D01*
X011036Y006197D01*
X010848Y006119D01*
X010716Y005987D01*
X010627Y005987D01*
X010517Y005941D01*
X010433Y005857D01*
X009933Y005357D01*
X009887Y005247D01*
X009887Y005127D01*
X009887Y004311D01*
X009063Y003487D01*
X008991Y003487D01*
X008954Y003524D01*
X008287Y003524D01*
X008205Y003442D01*
X008205Y003052D01*
X008197Y003079D01*
X008174Y003120D01*
X008140Y003154D01*
X008099Y003178D01*
X008053Y003190D01*
X007772Y003190D01*
X007772Y002832D01*
X007736Y002832D01*
X007736Y003190D01*
X007455Y003190D01*
X007409Y003178D01*
X007368Y003154D01*
X007334Y003120D01*
X007311Y003079D01*
X007298Y003034D01*
X007298Y002831D01*
X007735Y002831D01*
X007735Y002795D01*
X007298Y002795D01*
X007298Y002592D01*
X007311Y002547D01*
X007334Y002506D01*
X007368Y002472D01*
X007409Y002449D01*
X007455Y002436D01*
X007736Y002436D01*
X007736Y002794D01*
X007772Y002794D01*
X007772Y002436D01*
X008053Y002436D01*
X008099Y002449D01*
X008140Y002472D01*
X008174Y002506D01*
X008197Y002547D01*
X008210Y002592D01*
X008210Y002795D01*
X007773Y002795D01*
X007773Y002831D01*
X008210Y002831D01*
X008210Y002927D01*
X008287Y002850D01*
X008954Y002850D01*
X008991Y002887D01*
X009127Y002887D01*
X009247Y002887D01*
X009357Y002933D01*
X010357Y003933D01*
X010441Y004017D01*
X010487Y004127D01*
X010487Y005063D01*
X010764Y005339D01*
X010848Y005255D01*
X011009Y005188D01*
X010949Y005157D01*
X010879Y005107D01*
X010818Y005045D01*
X010767Y004975D01*
X010727Y004898D01*
X010701Y004816D01*
X010687Y004730D01*
X010687Y004707D01*
X011217Y004707D01*
X011217Y004667D01*
X010687Y004667D01*
X010687Y004644D01*
X010701Y004558D01*
X010727Y004476D01*
X010767Y004399D01*
X010818Y004329D01*
X010879Y004268D01*
X010949Y004217D01*
X011009Y004186D01*
X010848Y004119D01*
X010705Y003976D01*
X010627Y003789D01*
X010627Y003586D01*
X010705Y003398D01*
X010848Y003255D01*
X011036Y003177D01*
X011239Y003177D01*
X011426Y003255D01*
X011569Y003398D01*
X011647Y003586D01*
X011647Y003789D01*
X011569Y003976D01*
X011426Y004119D01*
X011355Y004149D01*
X011366Y004151D01*
X011448Y004177D01*
X011525Y004217D01*
X011595Y004268D01*
X011657Y004329D01*
X011707Y004399D01*
X011747Y004476D01*
X011774Y004558D01*
X011787Y004644D01*
X011787Y004667D01*
X011257Y004667D01*
X011257Y004707D01*
X011787Y004707D01*
X011787Y004730D01*
X011774Y004816D01*
X011747Y004898D01*
X011707Y004975D01*
X011657Y005045D01*
X011595Y005107D01*
X011525Y005157D01*
X011448Y005197D01*
X011366Y005224D01*
X011355Y005225D01*
X011426Y005255D01*
X011569Y005398D01*
X011647Y005586D01*
X011647Y005789D01*
X011569Y005976D01*
X011426Y006119D01*
X011287Y006177D01*
X011339Y006177D01*
X011526Y006255D01*
X011669Y006398D01*
X011747Y006586D01*
X011747Y006789D01*
X011669Y006976D01*
X011526Y007119D01*
X011339Y007197D01*
X011287Y007197D01*
X011426Y007255D01*
X011569Y007398D01*
X011647Y007586D01*
X011647Y007789D01*
X011569Y007976D01*
X011426Y008119D01*
X011287Y008177D01*
X011339Y008177D01*
X011526Y008255D01*
X011669Y008398D01*
X011747Y008586D01*
X011747Y008789D01*
X011669Y008976D01*
X011526Y009119D01*
X011339Y009197D01*
X011287Y009197D01*
X011426Y009255D01*
X011569Y009398D01*
X011647Y009586D01*
X011647Y009789D01*
X011569Y009976D01*
X011426Y010119D01*
X011287Y010177D01*
X011339Y010177D01*
X011526Y010255D01*
X011669Y010398D01*
X011747Y010586D01*
X011747Y010789D01*
X011669Y010976D01*
X011526Y011119D01*
X011339Y011197D01*
X011287Y011197D01*
X011426Y011255D01*
X011569Y011398D01*
X011647Y011586D01*
X011647Y011789D01*
X011569Y011976D01*
X011426Y012119D01*
X011287Y012177D01*
X011339Y012177D01*
X011526Y012255D01*
X011669Y012398D01*
X011747Y012586D01*
X011747Y012789D01*
X011669Y012976D01*
X011526Y013119D01*
X011339Y013197D01*
X011136Y013197D01*
X010948Y013119D01*
X010816Y012987D01*
X010311Y012987D01*
X009357Y013941D01*
X009247Y013987D01*
X009127Y013987D01*
X008991Y013987D01*
X008954Y014024D01*
X008287Y014024D01*
X008205Y013942D01*
X008205Y013552D01*
X008197Y013579D01*
X008174Y013620D01*
X008140Y013654D01*
X008099Y013678D01*
X008053Y013690D01*
X007772Y013690D01*
X007772Y013332D01*
X007736Y013332D01*
X007736Y013690D01*
X007455Y013690D01*
X007409Y013678D01*
X007368Y013654D01*
X007334Y013620D01*
X007298Y013444D02*
X006957Y013444D01*
X006908Y013285D02*
X007298Y013285D01*
X007298Y013127D02*
X005051Y013127D01*
X005209Y013285D02*
X005466Y013285D01*
X004892Y012968D02*
X007375Y012968D01*
X007736Y012968D02*
X007772Y012968D01*
X007772Y013127D02*
X007736Y013127D01*
X007736Y013285D02*
X007772Y013285D01*
X007772Y013444D02*
X007736Y013444D01*
X007736Y013602D02*
X007772Y013602D01*
X008124Y013761D02*
X008205Y013761D01*
X008205Y013919D02*
X008170Y013919D01*
X008170Y014078D02*
X012007Y014078D01*
X012007Y014236D02*
X008170Y014236D01*
X008091Y014395D02*
X012007Y014395D01*
X012007Y013919D02*
X009379Y013919D01*
X009538Y013761D02*
X012007Y013761D01*
X012007Y013602D02*
X009696Y013602D01*
X009855Y013444D02*
X012007Y013444D01*
X012007Y013285D02*
X010013Y013285D01*
X010172Y013127D02*
X010966Y013127D01*
X011509Y013127D02*
X012007Y013127D01*
X012007Y012968D02*
X011673Y012968D01*
X011738Y012809D02*
X012007Y012809D01*
X012007Y012651D02*
X011747Y012651D01*
X011708Y012492D02*
X012007Y012492D01*
X012007Y012334D02*
X011605Y012334D01*
X011529Y012017D02*
X012007Y012017D01*
X012007Y012175D02*
X011291Y012175D01*
X010983Y012175D02*
X010123Y012175D01*
X010282Y012017D02*
X010746Y012017D01*
X010869Y012334D02*
X009965Y012334D01*
X009957Y012492D02*
X008985Y012492D01*
X008962Y011858D02*
X009592Y011858D01*
X009750Y011700D02*
X008210Y011700D01*
X008210Y011858D02*
X008279Y011858D01*
X008205Y012175D02*
X008103Y012175D01*
X008170Y012334D02*
X008205Y012334D01*
X008170Y012492D02*
X008255Y012492D01*
X008170Y012651D02*
X009799Y012651D01*
X009640Y012809D02*
X008170Y012809D01*
X008133Y012968D02*
X009482Y012968D01*
X009323Y013127D02*
X008210Y013127D01*
X008210Y013285D02*
X009165Y013285D01*
X008205Y013602D02*
X008184Y013602D01*
X007772Y012175D02*
X007736Y012175D01*
X007736Y012017D02*
X007772Y012017D01*
X007772Y011858D02*
X007736Y011858D01*
X007736Y011700D02*
X007772Y011700D01*
X007772Y011541D02*
X007736Y011541D01*
X007405Y011383D02*
X003554Y011383D01*
X003352Y011224D02*
X006674Y011224D01*
X006190Y011066D02*
X006184Y011066D01*
X006148Y010273D02*
X006226Y010273D01*
X006747Y009797D02*
X004501Y009797D01*
X004660Y009639D02*
X006588Y009639D01*
X006961Y009163D02*
X007384Y009163D01*
X007298Y009004D02*
X006957Y009004D01*
X006957Y008846D02*
X007298Y008846D01*
X007298Y008687D02*
X004611Y008687D01*
X004770Y008529D02*
X007321Y008529D01*
X007393Y008370D02*
X004928Y008370D01*
X005087Y008212D02*
X006661Y008212D01*
X007034Y007736D02*
X007409Y007736D01*
X007310Y007578D02*
X006957Y007578D01*
X006957Y007419D02*
X007298Y007419D01*
X007298Y007260D02*
X006884Y007260D01*
X006735Y006785D02*
X005514Y006785D01*
X005672Y006626D02*
X006576Y006626D01*
X006957Y006151D02*
X007365Y006151D01*
X007298Y005992D02*
X006957Y005992D01*
X006957Y005834D02*
X007298Y005834D01*
X007298Y005675D02*
X005123Y005675D01*
X004965Y005834D02*
X005417Y005834D01*
X005417Y005992D02*
X004806Y005992D01*
X004648Y006151D02*
X005299Y006151D01*
X005141Y006309D02*
X004489Y006309D01*
X004331Y006468D02*
X004982Y006468D01*
X004824Y006626D02*
X004172Y006626D01*
X004014Y006785D02*
X004665Y006785D01*
X004506Y006943D02*
X003852Y006943D01*
X003543Y007102D02*
X004348Y007102D01*
X004189Y007260D02*
X003432Y007260D01*
X002931Y007102D02*
X002367Y007102D01*
X002367Y007260D02*
X002842Y007260D01*
X002696Y007419D02*
X002367Y007419D01*
X002367Y007578D02*
X002630Y007578D01*
X002627Y007736D02*
X002367Y007736D01*
X002367Y007895D02*
X002671Y007895D01*
X002782Y008053D02*
X002367Y008053D01*
X002367Y008212D02*
X003052Y008212D01*
X002833Y008370D02*
X002367Y008370D01*
X002367Y008529D02*
X002751Y008529D01*
X002727Y008687D02*
X002367Y008687D01*
X002367Y008846D02*
X002751Y008846D01*
X002833Y009004D02*
X002367Y009004D01*
X002367Y009163D02*
X003053Y009163D01*
X002781Y009322D02*
X002367Y009322D01*
X002367Y009480D02*
X002671Y009480D01*
X002627Y009639D02*
X002367Y009639D01*
X002367Y009797D02*
X002631Y009797D01*
X002696Y009956D02*
X002367Y009956D01*
X002367Y010114D02*
X002843Y010114D01*
X002930Y010273D02*
X002367Y010273D01*
X002367Y010431D02*
X002791Y010431D01*
X002727Y010590D02*
X002367Y010590D01*
X002367Y010748D02*
X002727Y010748D01*
X002776Y010907D02*
X002367Y010907D01*
X002367Y011066D02*
X002894Y011066D01*
X002922Y011224D02*
X002367Y011224D01*
X002367Y011383D02*
X002720Y011383D01*
X002645Y011541D02*
X002367Y011541D01*
X002367Y011700D02*
X002627Y011700D01*
X002656Y011858D02*
X002367Y011858D01*
X002367Y012017D02*
X002746Y012017D01*
X002983Y012175D02*
X002367Y012175D01*
X002367Y012334D02*
X002869Y012334D01*
X002766Y012492D02*
X002367Y012492D01*
X002367Y012651D02*
X002727Y012651D01*
X002736Y012809D02*
X002367Y012809D01*
X002367Y012968D02*
X002801Y012968D01*
X002966Y013127D02*
X002367Y013127D01*
X002367Y013285D02*
X004361Y013285D01*
X004202Y013127D02*
X003509Y013127D01*
X003605Y012334D02*
X004410Y012334D01*
X004417Y012492D02*
X005417Y012492D01*
X005417Y011858D02*
X004782Y011858D01*
X004624Y011700D02*
X007298Y011700D01*
X007298Y011858D02*
X006957Y011858D01*
X006957Y012017D02*
X007298Y012017D01*
X007405Y012175D02*
X006974Y012175D01*
X006601Y012651D02*
X004575Y012651D01*
X004441Y012517D02*
X004441Y012517D01*
X004251Y012175D02*
X003291Y012175D01*
X003529Y012017D02*
X004093Y012017D01*
X004465Y011541D02*
X007314Y011541D01*
X007396Y010748D02*
X007047Y010748D01*
X006957Y010590D02*
X007317Y010590D01*
X007298Y010431D02*
X006957Y010431D01*
X006896Y010273D02*
X007298Y010273D01*
X007298Y010114D02*
X003431Y010114D01*
X003544Y010273D02*
X005478Y010273D01*
X005442Y011066D02*
X003580Y011066D01*
X004322Y009956D02*
X007396Y009956D01*
X007736Y009956D02*
X007772Y009956D01*
X007772Y010114D02*
X007736Y010114D01*
X007736Y010273D02*
X007772Y010273D01*
X007772Y010431D02*
X007736Y010431D01*
X007736Y010590D02*
X007772Y010590D01*
X008112Y010748D02*
X008205Y010748D01*
X008191Y010590D02*
X008205Y010590D01*
X008210Y010273D02*
X010930Y010273D01*
X010843Y010114D02*
X008210Y010114D01*
X008112Y009956D02*
X010052Y009956D01*
X009873Y009797D02*
X008170Y009797D01*
X008170Y009639D02*
X009714Y009639D01*
X010087Y009163D02*
X011054Y009163D01*
X010833Y009004D02*
X009929Y009004D01*
X009922Y008846D02*
X008210Y008846D01*
X008210Y008687D02*
X009763Y008687D01*
X009605Y008529D02*
X008187Y008529D01*
X008115Y008370D02*
X009446Y008370D01*
X009287Y008212D02*
X008170Y008212D01*
X008170Y008053D02*
X009129Y008053D01*
X009502Y007578D02*
X009653Y007578D01*
X009660Y007736D02*
X009812Y007736D01*
X009819Y007895D02*
X009970Y007895D01*
X009977Y008053D02*
X010782Y008053D01*
X011052Y008212D02*
X010136Y008212D01*
X010295Y008370D02*
X010833Y008370D01*
X011422Y008212D02*
X012007Y008212D01*
X012007Y008370D02*
X011641Y008370D01*
X011724Y008529D02*
X012007Y008529D01*
X012007Y008687D02*
X011747Y008687D01*
X011723Y008846D02*
X012007Y008846D01*
X012007Y009004D02*
X011641Y009004D01*
X011421Y009163D02*
X012007Y009163D01*
X012007Y009322D02*
X011493Y009322D01*
X011603Y009480D02*
X012007Y009480D01*
X012007Y009639D02*
X011647Y009639D01*
X011644Y009797D02*
X012007Y009797D01*
X012007Y009956D02*
X011578Y009956D01*
X011431Y010114D02*
X012007Y010114D01*
X012007Y010273D02*
X011544Y010273D01*
X011683Y010431D02*
X012007Y010431D01*
X012007Y010590D02*
X011747Y010590D01*
X011747Y010748D02*
X012007Y010748D01*
X012007Y010907D02*
X011698Y010907D01*
X011580Y011066D02*
X012007Y011066D01*
X012007Y011224D02*
X011352Y011224D01*
X011554Y011383D02*
X012007Y011383D01*
X012007Y011541D02*
X011629Y011541D01*
X011647Y011700D02*
X012007Y011700D01*
X012007Y011858D02*
X011618Y011858D01*
X010922Y011224D02*
X008170Y011224D01*
X008170Y011066D02*
X010894Y011066D01*
X010720Y011383D02*
X008103Y011383D01*
X008194Y011541D02*
X009909Y011541D01*
X008205Y010907D02*
X008170Y010907D01*
X008170Y009480D02*
X008243Y009480D01*
X008205Y009322D02*
X008170Y009322D01*
X008205Y009163D02*
X008124Y009163D01*
X007772Y009163D02*
X007736Y009163D01*
X007736Y009004D02*
X007772Y009004D01*
X007772Y008846D02*
X007736Y008846D01*
X007736Y008687D02*
X007772Y008687D01*
X007772Y008529D02*
X007736Y008529D01*
X008170Y007895D02*
X008205Y007895D01*
X008205Y007736D02*
X008099Y007736D01*
X008198Y007578D02*
X008205Y007578D01*
X008210Y007419D02*
X008218Y007419D01*
X008210Y007260D02*
X009336Y007260D01*
X009324Y007419D02*
X009495Y007419D01*
X009178Y007102D02*
X008210Y007102D01*
X008080Y006943D02*
X009019Y006943D01*
X008844Y006785D02*
X008170Y006785D01*
X008170Y006626D02*
X008665Y006626D01*
X008230Y006468D02*
X008170Y006468D01*
X008170Y006309D02*
X008205Y006309D01*
X008205Y006151D02*
X008143Y006151D01*
X008210Y005834D02*
X009409Y005834D01*
X009568Y005992D02*
X009036Y005992D01*
X009036Y006151D02*
X009726Y006151D01*
X009885Y006309D02*
X009212Y006309D01*
X009392Y006468D02*
X010044Y006468D01*
X010202Y006626D02*
X009551Y006626D01*
X009709Y006785D02*
X010361Y006785D01*
X010522Y006943D02*
X009868Y006943D01*
X010026Y007102D02*
X010931Y007102D01*
X010842Y007260D02*
X010185Y007260D01*
X010733Y006309D02*
X010894Y006309D01*
X010924Y006151D02*
X010575Y006151D01*
X010721Y005992D02*
X010416Y005992D01*
X010409Y005834D02*
X010258Y005834D01*
X010251Y005675D02*
X010099Y005675D01*
X010092Y005516D02*
X009941Y005516D01*
X009934Y005358D02*
X009782Y005358D01*
X009887Y005199D02*
X009624Y005199D01*
X009487Y005041D02*
X009887Y005041D01*
X009887Y004882D02*
X009487Y004882D01*
X009487Y004724D02*
X009887Y004724D01*
X009887Y004565D02*
X009461Y004565D01*
X009294Y004407D02*
X009887Y004407D01*
X009824Y004248D02*
X008210Y004248D01*
X008209Y004090D02*
X009665Y004090D01*
X009507Y003931D02*
X005367Y003931D01*
X005209Y004090D02*
X007299Y004090D01*
X007298Y004248D02*
X005050Y004248D01*
X004892Y004407D02*
X005417Y004407D01*
X005385Y004565D02*
X004733Y004565D01*
X004575Y004724D02*
X005226Y004724D01*
X005068Y004882D02*
X004487Y004882D01*
X004487Y005041D02*
X004909Y005041D01*
X004751Y005199D02*
X004487Y005199D01*
X004440Y005358D02*
X004592Y005358D01*
X004433Y005516D02*
X004282Y005516D01*
X004275Y005675D02*
X004123Y005675D01*
X004116Y005834D02*
X003965Y005834D01*
X003958Y005992D02*
X003553Y005992D01*
X003351Y006151D02*
X003799Y006151D01*
X003641Y006309D02*
X003580Y006309D01*
X002924Y006151D02*
X002367Y006151D01*
X002367Y006309D02*
X002894Y006309D01*
X002776Y006468D02*
X002367Y006468D01*
X002367Y006626D02*
X002727Y006626D01*
X002727Y006785D02*
X002367Y006785D01*
X002367Y006943D02*
X002791Y006943D01*
X002721Y005992D02*
X002367Y005992D01*
X002367Y005834D02*
X002646Y005834D01*
X002627Y005675D02*
X002367Y005675D01*
X002367Y005516D02*
X002656Y005516D01*
X002745Y005358D02*
X002367Y005358D01*
X002367Y005199D02*
X002982Y005199D01*
X002814Y005041D02*
X002367Y005041D01*
X002367Y004882D02*
X002722Y004882D01*
X002687Y004724D02*
X002367Y004724D01*
X002367Y004565D02*
X002699Y004565D01*
X002763Y004407D02*
X002367Y004407D01*
X002367Y004248D02*
X002905Y004248D01*
X002818Y004090D02*
X002367Y004090D01*
X002367Y003931D02*
X002686Y003931D01*
X002627Y003773D02*
X002367Y003773D01*
X002367Y003614D02*
X002627Y003614D01*
X002681Y003455D02*
X002367Y003455D01*
X002367Y003297D02*
X002806Y003297D01*
X002367Y003138D02*
X005312Y003138D01*
X005417Y002980D02*
X002367Y002980D01*
X002367Y002821D02*
X005430Y002821D01*
X005153Y003297D02*
X003468Y003297D01*
X003593Y003455D02*
X004994Y003455D01*
X004836Y003614D02*
X003647Y003614D01*
X003647Y003773D02*
X004677Y003773D01*
X004519Y003931D02*
X003588Y003931D01*
X003456Y004090D02*
X004360Y004090D01*
X004202Y004248D02*
X003569Y004248D01*
X003711Y004407D02*
X004043Y004407D01*
X003913Y004565D02*
X003775Y004565D01*
X003787Y004724D02*
X003887Y004724D01*
X003887Y004882D02*
X003752Y004882D01*
X003660Y005041D02*
X003887Y005041D01*
X003750Y005199D02*
X003440Y005199D01*
X003529Y005358D02*
X003592Y005358D01*
X005038Y007260D02*
X005490Y007260D01*
X005196Y007102D02*
X007298Y007102D01*
X007428Y006943D02*
X005355Y006943D01*
X005050Y007419D02*
X004879Y007419D01*
X004872Y007578D02*
X004721Y007578D01*
X004714Y007736D02*
X004562Y007736D01*
X004555Y007895D02*
X004404Y007895D01*
X004397Y008053D02*
X003492Y008053D01*
X003422Y008212D02*
X004238Y008212D01*
X004080Y008370D02*
X003641Y008370D01*
X003641Y009004D02*
X004445Y009004D01*
X004452Y008846D02*
X005417Y008846D01*
X005430Y008053D02*
X005245Y008053D01*
X006136Y007260D02*
X006239Y007260D01*
X007736Y007260D02*
X007772Y007260D01*
X007772Y007102D02*
X007736Y007102D01*
X007736Y006943D02*
X007772Y006943D01*
X007772Y007419D02*
X007736Y007419D01*
X007736Y007578D02*
X007772Y007578D01*
X007736Y006151D02*
X007772Y006151D01*
X007772Y005992D02*
X007736Y005992D01*
X007736Y005834D02*
X007772Y005834D01*
X007772Y005675D02*
X007736Y005675D01*
X007736Y005516D02*
X007772Y005516D01*
X008128Y005358D02*
X008934Y005358D01*
X008887Y005199D02*
X008170Y005199D01*
X008170Y005041D02*
X008887Y005041D01*
X009092Y005516D02*
X008180Y005516D01*
X008210Y005675D02*
X009251Y005675D01*
X008205Y004882D02*
X008170Y004882D01*
X008205Y004724D02*
X007022Y004724D01*
X006957Y004565D02*
X007307Y004565D01*
X007298Y004407D02*
X006957Y004407D01*
X006722Y003773D02*
X005526Y003773D01*
X006135Y003614D02*
X006239Y003614D01*
X006957Y003138D02*
X007352Y003138D01*
X007298Y002980D02*
X006957Y002980D01*
X006944Y002821D02*
X007735Y002821D01*
X007773Y002821D02*
X012007Y002821D01*
X012007Y002663D02*
X008210Y002663D01*
X008172Y002504D02*
X012007Y002504D01*
X012007Y002980D02*
X009404Y002980D01*
X009563Y003138D02*
X012007Y003138D01*
X012007Y003297D02*
X011468Y003297D01*
X011593Y003455D02*
X012007Y003455D01*
X012007Y003614D02*
X011647Y003614D01*
X011647Y003773D02*
X012007Y003773D01*
X012007Y003931D02*
X011588Y003931D01*
X011456Y004090D02*
X012007Y004090D01*
X012007Y004248D02*
X011569Y004248D01*
X011711Y004407D02*
X012007Y004407D01*
X012007Y004565D02*
X011775Y004565D01*
X011787Y004724D02*
X012007Y004724D01*
X012007Y004882D02*
X011752Y004882D01*
X011660Y005041D02*
X012007Y005041D01*
X012007Y005199D02*
X011440Y005199D01*
X011529Y005358D02*
X012007Y005358D01*
X012007Y005516D02*
X011618Y005516D01*
X011647Y005675D02*
X012007Y005675D01*
X012007Y005834D02*
X011628Y005834D01*
X011553Y005992D02*
X012007Y005992D01*
X012007Y006151D02*
X011350Y006151D01*
X011580Y006309D02*
X012007Y006309D01*
X012007Y006468D02*
X011698Y006468D01*
X011747Y006626D02*
X012007Y006626D01*
X012007Y006785D02*
X011747Y006785D01*
X011683Y006943D02*
X012007Y006943D01*
X012007Y007102D02*
X011543Y007102D01*
X011432Y007260D02*
X012007Y007260D01*
X012007Y007419D02*
X011578Y007419D01*
X011644Y007578D02*
X012007Y007578D01*
X012007Y007736D02*
X011647Y007736D01*
X011603Y007895D02*
X012007Y007895D01*
X012007Y008053D02*
X011492Y008053D01*
X010781Y009322D02*
X010246Y009322D01*
X007328Y005516D02*
X005282Y005516D01*
X005440Y005358D02*
X006868Y005358D01*
X006649Y005199D02*
X005599Y005199D01*
X007298Y002663D02*
X002367Y002663D01*
X002367Y002504D02*
X007336Y002504D01*
X007736Y002504D02*
X007772Y002504D01*
X007772Y002663D02*
X007736Y002663D01*
X007736Y002980D02*
X007772Y002980D01*
X007772Y003138D02*
X007736Y003138D01*
X008156Y003138D02*
X008205Y003138D01*
X008205Y003297D02*
X008160Y003297D01*
X008170Y003455D02*
X008218Y003455D01*
X008170Y003614D02*
X009190Y003614D01*
X009348Y003773D02*
X008170Y003773D01*
X007772Y004090D02*
X007736Y004090D01*
X007736Y004248D02*
X007772Y004248D01*
X007772Y004407D02*
X007736Y004407D01*
X007736Y004565D02*
X007772Y004565D01*
X008201Y004565D02*
X008205Y004565D01*
X008210Y004407D02*
X008230Y004407D01*
X009721Y003297D02*
X010806Y003297D01*
X010681Y003455D02*
X009880Y003455D01*
X010038Y003614D02*
X010627Y003614D01*
X010627Y003773D02*
X010197Y003773D01*
X010355Y003931D02*
X010686Y003931D01*
X010818Y004090D02*
X010471Y004090D01*
X010487Y004248D02*
X010905Y004248D01*
X010763Y004407D02*
X010487Y004407D01*
X010487Y004565D02*
X010699Y004565D01*
X010687Y004724D02*
X010487Y004724D01*
X010487Y004882D02*
X010722Y004882D01*
X010814Y005041D02*
X010487Y005041D01*
X010624Y005199D02*
X010982Y005199D01*
X006759Y012809D02*
X004734Y012809D01*
X004519Y013444D02*
X002367Y013444D01*
X002367Y013602D02*
X004678Y013602D01*
X004837Y013761D02*
X002367Y013761D01*
X002367Y013919D02*
X004995Y013919D01*
X005455Y014078D02*
X002367Y014078D01*
X002367Y014236D02*
X006686Y014236D01*
X006203Y014078D02*
X006171Y014078D01*
X006160Y013285D02*
X006214Y013285D01*
X004128Y009322D02*
X003493Y009322D01*
X003421Y009163D02*
X004287Y009163D01*
D14*
X004187Y008687D02*
X003237Y008687D01*
X003137Y009687D02*
X004187Y009687D01*
X004687Y009187D01*
X005813Y009187D01*
X006561Y009187D02*
X006935Y009561D01*
X007754Y009561D01*
X008620Y009187D02*
X009687Y009187D01*
X010187Y009687D01*
X011137Y009687D01*
X011237Y008687D02*
X010187Y008687D01*
X009187Y007687D01*
X008620Y007687D01*
X007754Y008061D02*
X006935Y008061D01*
X006561Y007687D01*
X005813Y007687D02*
X005187Y007687D01*
X004187Y008687D01*
X004187Y007687D02*
X003187Y007687D01*
X003237Y006687D02*
X003687Y006687D01*
X005687Y004687D01*
X005813Y004687D01*
X006561Y004687D02*
X006935Y005061D01*
X007754Y005061D01*
X008620Y004687D02*
X009187Y004687D01*
X009187Y005187D01*
X010687Y006687D01*
X011237Y006687D01*
X011137Y005687D02*
X010687Y005687D01*
X010187Y005187D01*
X010187Y004187D01*
X009187Y003187D01*
X008620Y003187D01*
X007754Y003561D02*
X006935Y003561D01*
X006561Y003187D01*
X005813Y003187D02*
X005687Y003187D01*
X004187Y004687D01*
X004187Y005187D01*
X003687Y005687D01*
X003137Y005687D01*
X004187Y007687D02*
X005687Y006187D01*
X005813Y006187D01*
X006561Y006187D02*
X006935Y006561D01*
X007754Y006561D01*
X008620Y006187D02*
X009187Y006687D01*
X010187Y007687D01*
X011137Y007687D01*
X011237Y010687D02*
X008620Y010687D01*
X007754Y011061D02*
X006935Y011061D01*
X006561Y010687D01*
X005813Y010687D02*
X003237Y010687D01*
X003187Y011687D02*
X004187Y011687D01*
X004687Y012187D01*
X005813Y012187D01*
X006561Y012187D02*
X006935Y012561D01*
X007754Y012561D01*
X008620Y012187D02*
X009687Y012187D01*
X010187Y011687D01*
X011137Y011687D01*
X011237Y012687D02*
X010187Y012687D01*
X009187Y013687D01*
X008620Y013687D01*
X007754Y014061D02*
X006935Y014061D01*
X006561Y013687D01*
X005813Y013687D02*
X005187Y013687D01*
X004187Y012687D01*
X003237Y012687D01*
M02*
